<?xml version="1.0" encoding="UTF-8"?>
<svg width="28px" height="28px" viewBox="0 0 28 28" version="1.1" xmlns="http://www.w3.org/2000/svg" xmlns:xlink="http://www.w3.org/1999/xlink">
    <!-- Generator: Sketch 43.1 (39012) - http://www.bohemiancoding.com/sketch -->
    <title>Logo</title>
    <desc>Created with Sketch.</desc>
    <defs>
        <linearGradient x1="50%" y1="97.783801%" x2="50%" y2="1.55905295%" id="linearGradient-1">
            <stop stop-color="#1991EB" offset="0%"></stop>
            <stop stop-color="#2DA1F8" offset="100%"></stop>
        </linearGradient>
    </defs>
    <g id="修改" stroke="none" stroke-width="1" fill="none" fill-rule="evenodd">
        <g id="dark方案" transform="translate(-25.000000, -12.000000)">
            <g id="Logo" transform="translate(25.000000, 12.000000)">
                <rect id="Active-Highlight" fill="url(#linearGradient-1)" x="0" y="0" width="28" height="28" rx="3.27272727"></rect>
                <g id="知租侠logo" transform="translate(8.272727, 6.363636)" fill="#FFFFFF">
                    <g id="Z" transform="translate(0.494949, 0.565657)">
                        <path d="M3.96713871,12.3031418 L3.98196812,12.4913984 L2.17189473,12.3936237 L2.34121618,12.2338997 L1.27272716,12.0202022 L0.783517823,10.4676153 L7.30751907,3.5014949 C7.30955685,3.49935273 7.31157799,3.49719463 7.3135823,3.49502078 L7.3240027,3.48389421 L7.3237308,3.48371465 C7.41062643,3.3842673 7.46327287,3.25412647 7.46327287,3.1116894 C7.46327287,2.79997683 7.21113877,2.54715334 6.8996882,2.54603655 L6.88138095,2.16608591 L8.9141927,2.16608591 L8.56565006,2.58175344 L9.6161616,2.68686867 L10.0027905,4.34536272 L3.54992691,11.3642654 L3.55068498,11.3647491 C3.46338209,11.4642956 3.41045958,11.5947449 3.41045958,11.737555 C3.41045958,12.0469605 3.65887528,12.2983454 3.96713871,12.3031418 Z" id="Combined-Shape"></path>
                        <path d="M5.3030303,2.54545455 L0,2.54545455 L0,0 L8.20201976,0 C9.60783593,0 10.7474747,1.13963882 10.7474747,2.54545455 C10.7474747,3.27661733 10.4391995,3.93577858 9.94553475,4.40005269 C9.64446318,3.32993626 8.6613191,2.54545455 7.49494949,2.54545455 L5.3030303,2.54545455 Z" id="Combined-Shape"></path>
                        <path d="M5.44444444,12.3030303 L10.7474747,12.3030303 L10.7474747,14.8484848 L2.54545565,14.8484848 C1.13963882,14.8484848 0,13.708846 0,12.3030303 C0,11.5718675 0.308275202,10.9127063 0.801940002,10.4484322 C1.10301157,11.5185486 2.08615565,12.3030303 3.25252525,12.3030303 L5.44444444,12.3030303 Z" id="Combined-Shape"></path>
                    </g>
                </g>
            </g>
        </g>
    </g>
</svg>